<svg id="drostan-logo" viewBox="0 0 500 500" xmlns="http://www.w3.org/2000/svg" xmlns:svg="http://www.w3.org/2000/svg">
  <g id="logo" fill="#2040ff" stroke-width="0">
    <rect height="500" width="500" x="0" y="0" opacity="1">
      <animate
        attributeName="rx"
        values="0;0;0;250;250;250;250;250;250;0;0"
        dur="10s" repeatCount="indefinite"/>
      <animate
        attributeName="fill"
        values="#2040ff;#2040ff;#2040ff;#2040ff;#b90d55;#b90d55;#b90d55;#b90d55;#b90d55;#b90d55;#2040ff"
        dur="10s" repeatCount="indefinite"/>
    </rect>

    <g id="logo-inner" fill="#ffffff">
      <circle id="leaf" cx="250" cy="60" r="30"/>
      <use href="#leaf" transform="rotate(-30 250 250)"/>
      <use href="#leaf" transform="rotate(-60 250 250)"/>
      <use href="#leaf" transform="rotate(-90 250 250)"/>
      <use href="#leaf" transform="rotate(30 250 250)"/>
      <use href="#leaf" transform="rotate(60 250 250)"/>
      <use href="#leaf" transform="rotate(90 250 250)"/>

      <g>
        <polygon points="245,250 245,60 255,60 255,250" transform="rotate(61 250 250)"/>
        <polygon points="240,250 240,110 260,110 260,250" transform="rotate(185 250 250)"/>
        <circle id="leaf" cx="250" cy="250" r="20"/>
        <animate attributeName="opacity" values="1;1;1;1;0.8;0;0;0;0;0;1" dur="10s" repeatCount="indefinite"/>
      </g>
      <g>
        <use href="#leaf" transform="rotate(120 250 250)"/>
        <use href="#leaf" transform="rotate(150 250 250)"/>
        <use href="#leaf" transform="rotate(180 250 250)"/>
        <use href="#leaf" transform="rotate(-120 250 250)"/>
        <use href="#leaf" transform="rotate(-150 250 250)"/>
        <animate attributeName="opacity" values="1;1;1;0;0;0;0;0;0;0.3;1" dur="10s" repeatCount="indefinite"/>
      </g>
      
      <g>
              <polygon points="220,370 250,30 280,370 
      406,406 280,390
      334,453 250,390
      165,453 220,390 94,406"/>
      <polygon points="250,280 59,140 250,240 441,140 250,280"/>
      <polygon points="250,165 130,65 250,145 370,65"/>
      <polygon points="185,210 65,250 185,225"/>
      <polygon points="315,210 435,250 315,225"/>

      <animate
        attributeName="opacity"
        values="0;0;0;0.1;1;1;1;1;1;1;0"
        dur="10s" repeatCount="indefinite"/>
      </g>
    </g>
  </g>
</svg>
